<?xml version="1.0" standalone="no"?>
<!DOCTYPE svg PUBLIC "-//W3C//DTD SVG 20010904//EN"
 "http://www.w3.org/TR/2001/REC-SVG-20010904/DTD/svg10.dtd">
<svg version="1.0" xmlns="http://www.w3.org/2000/svg"
 width="101.000000pt" height="101.000000pt" viewBox="0 0 101.000000 101.000000"
 preserveAspectRatio="xMidYMid meet">
<metadata>
Created by potrace 1.14, written by Peter Selinger 2001-2017
</metadata>
<g transform="translate(0.000000,101.000000) scale(0.100000,-0.100000)"
fill="#000000" stroke="none">
<path d="M546 893 c5 -16 -5 -18 -105 -18 -60 0 -113 -3 -117 -7 -4 -5 1 -17
10 -27 17 -19 16 -20 -41 -31 -32 -6 -68 -13 -81 -16 l-22 -4 27 -53 c24 -47
27 -61 24 -147 -2 -89 0 -97 23 -125 17 -20 26 -25 26 -15 0 8 7 1 15 -17 38
-87 149 -79 174 13 10 37 32 37 42 0 25 -91 137 -100 173 -14 8 17 15 25 18
18 2 -8 11 -2 23 16 16 23 20 46 20 119 0 135 -10 180 -53 227 -20 22 -62 53
-94 69 -68 34 -67 34 -62 12z m81 -258 c48 -14 51 -17 63 -63 6 -26 14 -53 16
-59 6 -20 -9 -15 -35 12 -32 34 -80 33 -122 -2 -38 -32 -61 -31 -102 3 -39 33
-86 32 -121 -3 -14 -14 -29 -23 -32 -20 -3 3 1 30 10 60 16 55 29 67 91 80 48
11 185 6 232 -8z m-184 -123 c24 -21 22 -77 -3 -102 -58 -58 -160 18 -115 87
29 43 78 50 118 15z m221 -2 c27 -26 25 -78 -3 -102 -51 -41 -121 -9 -121 55
0 68 73 95 124 47z"/>
<path d="M373 483 c-18 -7 -16 -52 3 -60 23 -9 51 23 38 44 -12 19 -23 24 -41
16z"/>
<path d="M568 503 c7 -3 16 -2 19 1 4 3 -2 6 -13 5 -11 0 -14 -3 -6 -6z"/>
<path d="M638 503 c7 -3 16 -2 19 1 4 3 -2 6 -13 5 -11 0 -14 -3 -6 -6z"/>
<path d="M593 483 c-18 -7 -16 -52 3 -60 23 -9 51 23 38 44 -12 19 -23 24 -41
16z"/>
<path d="M420 328 c0 -14 45 -38 73 -38 29 0 87 25 87 38 0 4 -36 7 -80 7 -44
0 -80 -3 -80 -7z"/>
<path d="M340 189 c-76 -15 -144 -54 -168 -98 -12 -21 -22 -48 -22 -60 0 -21
0 -21 350 -21 346 0 350 0 350 20 0 81 -99 149 -242 167 -46 6 -48 5 -48 -19
0 -51 -69 -78 -103 -40 -10 10 -17 28 -17 40 0 25 -20 27 -100 11z"/>
</g>
</svg>
